<svg width="202" height="132" viewBox="0 0 202 132" fill="none" xmlns="http://www.w3.org/2000/svg">
<path d="M193 38H43C40.2386 38 38 40.2386 38 43V123C38 125.761 40.2386 128 43 128H193C195.761 128 198 125.761 198 123V43C198 40.2386 195.761 38 193 38Z" stroke="#6473FF" stroke-width="8"/>
<path d="M181 29.5V26C181 23.2386 178.761 21 176 21H26C23.2386 21 21 23.2386 21 26L21 106C21 108.761 23.2386 111 26 111H30" stroke="#3EC8F3" stroke-width="8"/>
<path d="M164 13V9C164 6.23858 161.761 4 159 4H9C6.23858 4 4 6.23858 4 9V89C4 91.7614 6.23858 94 9 94H13" stroke="#36DDDB" stroke-width="8"/>
</svg>
